<?xml version="1.0" encoding="UTF-8" standalone="no"?><svg xmlns="http://www.w3.org/2000/svg" xmlns:xlink="http://www.w3.org/1999/xlink" contentScriptType="application/ecmascript" contentStyleType="text/css" height="1478px" preserveAspectRatio="none" style="width:926px;height:1478px;" version="1.1" viewBox="0 0 926 1478" width="926px" zoomAndPan="magnify"><defs><filter height="300%" id="f1dew79mzjrtna" width="300%" x="-1" y="-1"><feGaussianBlur result="blurOut" stdDeviation="2.0"/><feColorMatrix in="blurOut" result="blurOut2" type="matrix" values="0 0 0 0 0 0 0 0 0 0 0 0 0 0 0 0 0 0 .4 0"/><feOffset dx="4.0" dy="4.0" in="blurOut2" result="blurOut3"/><feBlend in="SourceGraphic" in2="blurOut3" mode="normal"/></filter></defs><g><!--MD5=[dd9acf3b3f8738b13ec7ae89df168d61]
cluster wineshop--><rect fill="#FFFFFF" filter="url(#f1dew79mzjrtna)" height="1459" style="stroke:#000000;stroke-width:1.5;" width="677" x="237" y="7"/><text fill="#000000" font-family="sans-serif" font-size="14" font-weight="bold" lengthAdjust="spacingAndGlyphs" textLength="77" x="537" y="21.9951">wineshop</text><ellipse cx="790.2254" cy="51.2451" fill="#FEFECE" filter="url(#f1dew79mzjrtna)" rx="66.7254" ry="15.7451" style="stroke:#A80036;stroke-width:1.5;"/><text fill="#000000" font-family="sans-serif" font-size="14" lengthAdjust="spacingAndGlyphs" textLength="98" x="741.2254" y="55.8935">add employee</text><ellipse cx="375.466" cy="582.9932" fill="#FEFECE" filter="url(#f1dew79mzjrtna)" rx="62.966" ry="14.9932" style="stroke:#A80036;stroke-width:1.5;"/><text fill="#000000" font-family="sans-serif" font-size="14" lengthAdjust="spacingAndGlyphs" textLength="88" x="331.466" y="587.6416">view request</text><ellipse cx="790.1335" cy="1260.0236" fill="#FEFECE" filter="url(#f1dew79mzjrtna)" rx="46.1335" ry="14.5236" style="stroke:#A80036;stroke-width:1.5;"/><text fill="#000000" font-family="sans-serif" font-size="14" lengthAdjust="spacingAndGlyphs" textLength="61" x="759.6335" y="1264.6721">buy wine</text><ellipse cx="375.5203" cy="1016.8041" fill="#FEFECE" filter="url(#f1dew79mzjrtna)" rx="99.5203" ry="22.3041" style="stroke:#A80036;stroke-width:1.5;"/><text fill="#000000" font-family="sans-serif" font-size="14" lengthAdjust="spacingAndGlyphs" textLength="175" x="288.0203" y="1021.4525">view notifications number</text><ellipse cx="375.3259" cy="1089.0236" fill="#FEFECE" filter="url(#f1dew79mzjrtna)" rx="55.3259" ry="14.5236" style="stroke:#A80036;stroke-width:1.5;"/><text fill="#000000" font-family="sans-serif" font-size="14" lengthAdjust="spacingAndGlyphs" textLength="74" x="338.3259" y="1093.6721">view wines</text><ellipse cx="790.2036" cy="1173.1407" fill="#FEFECE" filter="url(#f1dew79mzjrtna)" rx="63.7036" ry="15.1407" style="stroke:#A80036;stroke-width:1.5;"/><text fill="#000000" font-family="sans-serif" font-size="14" lengthAdjust="spacingAndGlyphs" textLength="90" x="745.2036" y="1177.7892">request wine</text><ellipse cx="375.5637" cy="1156.0127" fill="#FEFECE" filter="url(#f1dew79mzjrtna)" rx="73.0637" ry="17.0127" style="stroke:#A80036;stroke-width:1.5;"/><text fill="#000000" font-family="sans-serif" font-size="14" lengthAdjust="spacingAndGlyphs" textLength="114" x="318.5637" y="1160.6612">view user orders</text><ellipse cx="790.0937" cy="1091.1187" fill="#FEFECE" filter="url(#f1dew79mzjrtna)" rx="116.0937" ry="25.6187" style="stroke:#A80036;stroke-width:1.5;"/><text fill="#000000" font-family="sans-serif" font-size="14" lengthAdjust="spacingAndGlyphs" textLength="211" x="684.5937" y="1095.7672">search wine for name and year</text><ellipse cx="375.4465" cy="51.1893" fill="#FEFECE" filter="url(#f1dew79mzjrtna)" rx="71.4465" ry="16.6893" style="stroke:#A80036;stroke-width:1.5;"/><text fill="#000000" font-family="sans-serif" font-size="14" lengthAdjust="spacingAndGlyphs" textLength="110" x="320.4465" y="55.8377">view employees</text><ellipse cx="375.3614" cy="117.0236" fill="#FEFECE" filter="url(#f1dew79mzjrtna)" rx="58.8614" ry="14.5236" style="stroke:#A80036;stroke-width:1.5;"/><text fill="#000000" font-family="sans-serif" font-size="14" lengthAdjust="spacingAndGlyphs" textLength="79" x="335.8614" y="121.6721">view orders</text><ellipse cx="375.3345" cy="648.0236" fill="#FEFECE" filter="url(#f1dew79mzjrtna)" rx="26.3345" ry="14.5236" style="stroke:#A80036;stroke-width:1.5;"/><text fill="#000000" font-family="sans-serif" font-size="14" lengthAdjust="spacingAndGlyphs" textLength="33" x="358.8345" y="652.6721">login</text><ellipse cx="375.3345" cy="1223.0236" fill="#FEFECE" filter="url(#f1dew79mzjrtna)" rx="26.3345" ry="14.5236" style="stroke:#A80036;stroke-width:1.5;"/><text fill="#000000" font-family="sans-serif" font-size="14" lengthAdjust="spacingAndGlyphs" textLength="33" x="358.8345" y="1227.6721">login</text><ellipse cx="375.3345" cy="181.0236" fill="#FEFECE" filter="url(#f1dew79mzjrtna)" rx="26.3345" ry="14.5236" style="stroke:#A80036;stroke-width:1.5;"/><text fill="#000000" font-family="sans-serif" font-size="14" lengthAdjust="spacingAndGlyphs" textLength="33" x="358.8345" y="185.6721">login</text><ellipse cx="375.734" cy="1287.0236" fill="#FEFECE" filter="url(#f1dew79mzjrtna)" rx="36.234" ry="14.5236" style="stroke:#A80036;stroke-width:1.5;"/><text fill="#000000" font-family="sans-serif" font-size="14" lengthAdjust="spacingAndGlyphs" textLength="47" x="352.234" y="1291.6721">singup</text><ellipse cx="375.6127" cy="712.0236" fill="#FEFECE" filter="url(#f1dew79mzjrtna)" rx="34.1127" ry="14.5236" style="stroke:#A80036;stroke-width:1.5;"/><text fill="#000000" font-family="sans-serif" font-size="14" lengthAdjust="spacingAndGlyphs" textLength="44" x="353.6127" y="716.6721">logout</text><ellipse cx="375.6127" cy="1351.0236" fill="#FEFECE" filter="url(#f1dew79mzjrtna)" rx="34.1127" ry="14.5236" style="stroke:#A80036;stroke-width:1.5;"/><text fill="#000000" font-family="sans-serif" font-size="14" lengthAdjust="spacingAndGlyphs" textLength="44" x="353.6127" y="1355.6721">logout</text><ellipse cx="375.6127" cy="245.0236" fill="#FEFECE" filter="url(#f1dew79mzjrtna)" rx="34.1127" ry="14.5236" style="stroke:#A80036;stroke-width:1.5;"/><text fill="#000000" font-family="sans-serif" font-size="14" lengthAdjust="spacingAndGlyphs" textLength="44" x="353.6127" y="249.6721">logout</text><ellipse cx="375.3259" cy="309.0236" fill="#FEFECE" filter="url(#f1dew79mzjrtna)" rx="55.3259" ry="14.5236" style="stroke:#A80036;stroke-width:1.5;"/><text fill="#000000" font-family="sans-serif" font-size="14" lengthAdjust="spacingAndGlyphs" textLength="74" x="338.3259" y="313.6721">view wines</text><ellipse cx="375.3259" cy="518.0236" fill="#FEFECE" filter="url(#f1dew79mzjrtna)" rx="55.3259" ry="14.5236" style="stroke:#A80036;stroke-width:1.5;"/><text fill="#000000" font-family="sans-serif" font-size="14" lengthAdjust="spacingAndGlyphs" textLength="74" x="338.3259" y="522.6721">view wines</text><ellipse cx="375.6188" cy="373.0236" fill="#FEFECE" filter="url(#f1dew79mzjrtna)" rx="54.6188" ry="14.5236" style="stroke:#A80036;stroke-width:1.5;"/><text fill="#000000" font-family="sans-serif" font-size="14" lengthAdjust="spacingAndGlyphs" textLength="73" x="339.1188" y="377.6721">view users</text><ellipse cx="375.3614" cy="776.0236" fill="#FEFECE" filter="url(#f1dew79mzjrtna)" rx="58.8614" ry="14.5236" style="stroke:#A80036;stroke-width:1.5;"/><text fill="#000000" font-family="sans-serif" font-size="14" lengthAdjust="spacingAndGlyphs" textLength="79" x="335.8614" y="780.6721">view orders</text><ellipse cx="789.9975" cy="756.0236" fill="#FEFECE" filter="url(#f1dew79mzjrtna)" rx="52.4975" ry="14.5236" style="stroke:#A80036;stroke-width:1.5;"/><text fill="#000000" font-family="sans-serif" font-size="14" lengthAdjust="spacingAndGlyphs" textLength="70" x="754.9975" y="760.6721">ship order</text><ellipse cx="375.2877" cy="849.8575" fill="#FEFECE" filter="url(#f1dew79mzjrtna)" rx="107.2877" ry="23.8575" style="stroke:#A80036;stroke-width:1.5;"/><text fill="#000000" font-family="sans-serif" font-size="14" lengthAdjust="spacingAndGlyphs" textLength="192" x="279.2877" y="854.506">view unprocessed requests</text><ellipse cx="790.0637" cy="923.0127" fill="#FEFECE" filter="url(#f1dew79mzjrtna)" rx="73.0637" ry="17.0127" style="stroke:#A80036;stroke-width:1.5;"/><text fill="#000000" font-family="sans-serif" font-size="14" lengthAdjust="spacingAndGlyphs" textLength="114" x="733.0637" y="927.6612">process request</text><ellipse cx="790.228" cy="1011.0456" fill="#FEFECE" filter="url(#f1dew79mzjrtna)" rx="85.728" ry="19.5456" style="stroke:#A80036;stroke-width:1.5;"/><text fill="#000000" font-family="sans-serif" font-size="14" lengthAdjust="spacingAndGlyphs" textLength="144" x="718.228" y="1015.694">update wine quantity</text><ellipse cx="790.0637" cy="843.0127" fill="#FEFECE" filter="url(#f1dew79mzjrtna)" rx="73.0637" ry="17.0127" style="stroke:#A80036;stroke-width:1.5;"/><text fill="#000000" font-family="sans-serif" font-size="14" lengthAdjust="spacingAndGlyphs" textLength="114" x="733.0637" y="847.6612">view all requests</text><ellipse cx="790.2229" cy="427.0446" fill="#FEFECE" filter="url(#f1dew79mzjrtna)" rx="93.2229" ry="21.0446" style="stroke:#A80036;stroke-width:1.5;"/><text fill="#000000" font-family="sans-serif" font-size="14" lengthAdjust="spacingAndGlyphs" textLength="161" x="709.7229" y="431.693">update quantity of wine</text><ellipse cx="375.4619" cy="437.0236" fill="#FEFECE" filter="url(#f1dew79mzjrtna)" rx="48.9619" ry="14.5236" style="stroke:#A80036;stroke-width:1.5;"/><text fill="#000000" font-family="sans-serif" font-size="14" lengthAdjust="spacingAndGlyphs" textLength="65" x="342.9619" y="441.6721">new wine</text><ellipse cx="790.0638" cy="604.8128" fill="#FEFECE" filter="url(#f1dew79mzjrtna)" rx="94.5638" ry="21.3128" style="stroke:#A80036;stroke-width:1.5;"/><text fill="#000000" font-family="sans-serif" font-size="14" lengthAdjust="spacingAndGlyphs" textLength="164" x="708.0638" y="609.4612">view only finished wines</text><ellipse cx="790.2482" cy="523.9496" fill="#FEFECE" filter="url(#f1dew79mzjrtna)" rx="107.7482" ry="23.9496" style="stroke:#A80036;stroke-width:1.5;"/><text fill="#000000" font-family="sans-serif" font-size="14" lengthAdjust="spacingAndGlyphs" textLength="193" x="693.7482" y="528.5981">process all requests of wine</text><ellipse cx="375.7303" cy="934.2461" fill="#FEFECE" filter="url(#f1dew79mzjrtna)" rx="114.2303" ry="25.2461" style="stroke:#A80036;stroke-width:1.5;"/><text fill="#000000" font-family="sans-serif" font-size="14" lengthAdjust="spacingAndGlyphs" textLength="207" x="272.2303" y="938.8945">view number of finished wines</text><ellipse cx="375.6751" cy="1429.035" fill="#FEFECE" filter="url(#f1dew79mzjrtna)" rx="130.6751" ry="28.535" style="stroke:#A80036;stroke-width:1.5;"/><text fill="#000000" font-family="sans-serif" font-size="14" lengthAdjust="spacingAndGlyphs" textLength="242" x="254.6751" y="1433.6835">view new user requests processed</text><ellipse cx="789.9128" cy="1422.9826" fill="#FEFECE" filter="url(#f1dew79mzjrtna)" rx="87.9128" ry="19.9826" style="stroke:#A80036;stroke-width:1.5;"/><text fill="#000000" font-family="sans-serif" font-size="14" lengthAdjust="spacingAndGlyphs" textLength="149" x="715.4128" y="1427.631">view all user requests</text><!--MD5=[97ab183161fd5d1db7fba7485cf76add]
entity Admin--><ellipse cx="150" cy="214" fill="#FEFECE" filter="url(#f1dew79mzjrtna)" rx="8" ry="8" style="stroke:#A80036;stroke-width:1.5;"/><path d="M150,222 L150,249 M137,230 L163,230 M150,249 L137,264 M150,249 L163,264 " fill="none" filter="url(#f1dew79mzjrtna)" style="stroke:#A80036;stroke-width:1.5;"/><text fill="#000000" font-family="sans-serif" font-size="14" lengthAdjust="spacingAndGlyphs" textLength="43" x="128.5" y="282.4951">Admin</text><!--MD5=[cade383c679c4100475c230cbe0e5423]
entity Employee--><ellipse cx="150" cy="681" fill="#FEFECE" filter="url(#f1dew79mzjrtna)" rx="8" ry="8" style="stroke:#A80036;stroke-width:1.5;"/><path d="M150,689 L150,716 M137,697 L163,697 M150,716 L137,731 M150,716 L163,731 " fill="none" filter="url(#f1dew79mzjrtna)" style="stroke:#A80036;stroke-width:1.5;"/><text fill="#000000" font-family="sans-serif" font-size="14" lengthAdjust="spacingAndGlyphs" textLength="68" x="116" y="749.4951">Employee</text><!--MD5=[aa9590aded7922f1f97871b066948052]
entity Person--><ellipse cx="30.5" cy="681" fill="#FEFECE" filter="url(#f1dew79mzjrtna)" rx="8" ry="8" style="stroke:#A80036;stroke-width:1.5;"/><path d="M30.5,689 L30.5,716 M17.5,697 L43.5,697 M30.5,716 L17.5,731 M30.5,716 L43.5,731 " fill="none" filter="url(#f1dew79mzjrtna)" style="stroke:#A80036;stroke-width:1.5;"/><text fill="#000000" font-family="sans-serif" font-size="14" lengthAdjust="spacingAndGlyphs" textLength="49" x="6" y="749.4951">Person</text><!--MD5=[fee662a292a0353a69bd162820bae93b]
entity User--><ellipse cx="150" cy="1171" fill="#FEFECE" filter="url(#f1dew79mzjrtna)" rx="8" ry="8" style="stroke:#A80036;stroke-width:1.5;"/><path d="M150,1179 L150,1206 M137,1187 L163,1187 M150,1206 L137,1221 M150,1206 L163,1221 " fill="none" filter="url(#f1dew79mzjrtna)" style="stroke:#A80036;stroke-width:1.5;"/><text fill="#000000" font-family="sans-serif" font-size="14" lengthAdjust="spacingAndGlyphs" textLength="32" x="134" y="1239.4951">User</text><!--MD5=[404d4790743285f8cb0e98bfd4baa170]
reverse link 15 to 7--><path d="M424.6243,1098.9552 C504.6596,1115.1747 662.2277,1147.1065 741.7162,1163.2151 " fill="none" id="15-backto-7" style="stroke:#A80036;stroke-width:1.0;stroke-dasharray:7.0,7.0;"/><polygon fill="#A80036" points="419.4663,1097.9099,427.4924,1103.6179,424.3667,1098.9031,429.0815,1095.7773,419.4663,1097.9099" style="stroke:#A80036;stroke-width:1.0;"/><text fill="#000000" font-family="sans-serif" font-size="13" lengthAdjust="spacingAndGlyphs" textLength="44" x="568" y="1124.0669">extend</text><!--MD5=[3c935f47b85d3339aeea820b7398c16b]
reverse link 15 to 1--><path d="M428.4876,1097.4575 C452.7876,1102.4683 481.5596,1110.035 506,1121 C536.032,1134.4736 538.2189,1147.0279 567,1163 C633.0792,1199.6708 715.777,1232.4837 759.5467,1248.9052 " fill="none" id="15-backto-1" style="stroke:#A80036;stroke-width:1.0;stroke-dasharray:7.0,7.0;"/><polygon fill="#A80036" points="423.3733,1096.4267,431.4056,1102.126,428.2747,1097.4146,432.9862,1094.2837,423.3733,1096.4267" style="stroke:#A80036;stroke-width:1.0;"/><text fill="#000000" font-family="sans-serif" font-size="13" lengthAdjust="spacingAndGlyphs" textLength="44" x="568" y="1159.0669">extend</text><!--MD5=[4287581a647e59538b55191f1aee6a32]
reverse link 15 to 8--><path d="M436.5644,1089.2946 C498.8064,1089.595 596.8879,1090.0682 673.953,1090.4401 " fill="none" id="15-backto-8" style="stroke:#A80036;stroke-width:1.0;stroke-dasharray:7.0,7.0;"/><polygon fill="#A80036" points="431.4013,1089.2697,440.3819,1093.3131,436.4012,1089.2938,440.4205,1085.3132,431.4013,1089.2697" style="stroke:#A80036;stroke-width:1.0;"/><text fill="#000000" font-family="sans-serif" font-size="13" lengthAdjust="spacingAndGlyphs" textLength="44" x="568" y="1086.0669">extend</text><!--MD5=[da52e3ed5fcc4dd2e6e0b1e54788a12a]
reverse link 9 to 10--><path d="M452.2918,51 C530.1042,51 649.2632,51 723.2587,51 " fill="none" id="9-backto-10" style="stroke:#A80036;stroke-width:1.0;stroke-dasharray:7.0,7.0;"/><polygon fill="#A80036" points="447.2272,51,456.2272,55,452.2272,51,456.2272,47,447.2272,51" style="stroke:#A80036;stroke-width:1.0;"/><text fill="#000000" font-family="sans-serif" font-size="13" lengthAdjust="spacingAndGlyphs" textLength="44" x="568" y="47.0669">extend</text><!--MD5=[7e5422c7366c059180bb8ed1c2ed60bf]
reverse link 30 to ship order--><path d="M438.8866,772.9415 C520.9111,768.9838 662.2752,762.1628 738.201,758.4993 " fill="none" id="30-backto-ship order" style="stroke:#A80036;stroke-width:1.0;stroke-dasharray:7.0,7.0;"/><polygon fill="#A80036" points="433.5709,773.198,442.7533,776.7593,438.5651,772.9569,442.3675,768.7686,433.5709,773.198" style="stroke:#A80036;stroke-width:1.0;"/><text fill="#000000" font-family="sans-serif" font-size="13" lengthAdjust="spacingAndGlyphs" textLength="44" x="568" y="761.0669">extend</text><!--MD5=[4a5ead5259e444a4f9bea4831cbdb693]
reverse link 31 to view all requests--><path d="M487.9968,848.1002 C560.8968,846.8691 653.7284,845.3013 717.1035,844.2311 " fill="none" id="31-backto-view all requests" style="stroke:#A80036;stroke-width:1.0;stroke-dasharray:7.0,7.0;"/><polygon fill="#A80036" points="482.7831,848.1882,491.8495,852.0354,487.7824,848.1036,491.7142,844.0365,482.7831,848.1882" style="stroke:#A80036;stroke-width:1.0;"/><text fill="#000000" font-family="sans-serif" font-size="13" lengthAdjust="spacingAndGlyphs" textLength="44" x="568" y="842.0669">extend</text><!--MD5=[ffc1286d13c362baa9c7da32e3b0434b]
reverse link 31 to 33--><path d="M465.3947,865.8319 C546.1128,880.0476 662.2569,900.5024 731.522,912.7011 " fill="none" id="31-backto-33" style="stroke:#A80036;stroke-width:1.0;stroke-dasharray:7.0,7.0;"/><polygon fill="#A80036" points="460.1301,864.9047,468.2999,870.4052,465.0543,865.772,469.6875,862.5264,460.1301,864.9047" style="stroke:#A80036;stroke-width:1.0;"/><text fill="#000000" font-family="sans-serif" font-size="13" lengthAdjust="spacingAndGlyphs" textLength="44" x="568" y="880.0669">extend</text><!--MD5=[dd6aa134d7dfe33379874915d0b5aed0]
reverse link 34 to 33--><path d="M790,986.225 C790,971.5058 790,953.2138 790,940.0977 " fill="none" id="34-backto-33" style="stroke:#A80036;stroke-width:1.0;stroke-dasharray:7.0,7.0;"/><polygon fill="#A80036" points="790,991.4699,794,982.4699,790,986.4699,786,982.4699,790,991.4699" style="stroke:#A80036;stroke-width:1.0;"/><text fill="#000000" font-family="sans-serif" font-size="13" lengthAdjust="spacingAndGlyphs" textLength="45" x="756" y="970.3169">include</text><!--MD5=[eefea616a4fa7896402d3dc30070056c]
reverse link 21 to new wine--><path d="M375.5,498.096 C375.5,483.7666 375.5,464.7499 375.5,451.7625 " fill="none" id="21-backto-new wine" style="stroke:#A80036;stroke-width:1.0;stroke-dasharray:7.0,7.0;"/><polygon fill="#A80036" points="375.5,503.1434,379.5,494.1434,375.5,498.1434,371.5,494.1434,375.5,503.1434" style="stroke:#A80036;stroke-width:1.0;"/><text fill="#000000" font-family="sans-serif" font-size="13" lengthAdjust="spacingAndGlyphs" textLength="44" x="342" y="482.0669">extend</text><!--MD5=[ef975ee75f4e1a3780f0fa79dc4d6b73]
reverse link 21 to view only finished wines--><path d="M424.234,528.2289 C497.4793,543.6024 636.2859,572.7367 720.244,590.3588 " fill="none" id="21-backto-view only finished wines" style="stroke:#A80036;stroke-width:1.0;stroke-dasharray:7.0,7.0;"/><polygon fill="#A80036" points="419.0753,527.1461,427.0616,532.9097,423.9687,528.1733,428.7051,525.0803,419.0753,527.1461" style="stroke:#A80036;stroke-width:1.0;"/><text fill="#000000" font-family="sans-serif" font-size="13" lengthAdjust="spacingAndGlyphs" textLength="44" x="568" y="555.0669">extend</text><!--MD5=[960436d3c2c9be09b3eb9d6742cb08b3]
reverse link 21 to 40--><path d="M423.5016,507.4616 C497.4372,491.2297 639.4001,460.063 723.2865,441.6464 " fill="none" id="21-backto-40" style="stroke:#A80036;stroke-width:1.0;stroke-dasharray:7.0,7.0;"/><polygon fill="#A80036" points="418.2976,508.6041,427.946,510.5809,423.1813,507.5318,426.2304,502.7671,418.2976,508.6041" style="stroke:#A80036;stroke-width:1.0;"/><text fill="#000000" font-family="sans-serif" font-size="13" lengthAdjust="spacingAndGlyphs" textLength="44" x="568" y="462.0669">extend</text><!--MD5=[d8a21d56badf694ca54d9eb4aaf7712a]
reverse link process all requests of wine to 40--><path d="M790,494.1786 C790,479.2979 790,461.6481 790,448.1747 " fill="none" id="process all requests of wine-backto-40" style="stroke:#A80036;stroke-width:1.0;stroke-dasharray:7.0,7.0;"/><polygon fill="#A80036" points="790,499.5228,794,490.5228,790,494.5228,786,490.5228,790,499.5228" style="stroke:#A80036;stroke-width:1.0;"/><text fill="#000000" font-family="sans-serif" font-size="13" lengthAdjust="spacingAndGlyphs" textLength="45" x="756" y="478.5669">include</text><!--MD5=[97dceef1c6c946be4f6efec3fcfae073]
reverse link 25 to view all user requests--><path d="M511.0598,1427.0377 C573.7466,1426.1303 646.4137,1425.0785 701.8609,1424.2758 " fill="none" id="25-backto-view all user requests" style="stroke:#A80036;stroke-width:1.0;stroke-dasharray:7.0,7.0;"/><polygon fill="#A80036" points="505.7972,1427.1139,514.8543,1430.9829,510.7967,1427.0413,514.7382,1422.9837,505.7972,1427.1139" style="stroke:#A80036;stroke-width:1.0;"/><text fill="#000000" font-family="sans-serif" font-size="13" lengthAdjust="spacingAndGlyphs" textLength="44" x="568" y="1422.0669">extend</text><!--MD5=[eb46148bc85b5b515eabfab5b44ce845]
link Admin to 16--><path d="M171.6929,277.8338 C187.3777,299.004 210.4253,325.4008 237,341 C261.5418,355.4059 292.0755,363.3265 318.2236,367.6813 " fill="none" id="Admin-to-16" style="stroke:#A80036;stroke-width:1.0;"/><polygon fill="#A80036" points="323.3917,368.5056,315.1341,363.1379,318.4541,367.718,313.874,371.038,323.3917,368.5056" style="stroke:#A80036;stroke-width:1.0;"/><!--MD5=[8ef62b3ece751d4d6f479d12b2cb11dc]
link Employee to 4--><path d="M177.9043,671.1418 C193.2017,651.6958 213.7698,629.7431 237,616 C259.642,602.6049 287.396,594.6439 312.098,589.9138 " fill="none" id="Employee-to-4" style="stroke:#A80036;stroke-width:1.0;"/><polygon fill="#A80036" points="317.3199,588.9527,307.7445,586.648,312.4025,589.8578,309.1927,594.5159,317.3199,588.9527" style="stroke:#A80036;stroke-width:1.0;"/><!--MD5=[8ca2114c2c3fc2a64f87771433e144dc]
link Employee to 30--><path d="M184.3797,725.776 C200.2429,731.8389 219.4183,738.758 237,744 C265.4906,752.4945 297.8373,760.0806 324.1017,765.7322 " fill="none" id="Employee-to-30" style="stroke:#A80036;stroke-width:1.0;"/><polygon fill="#A80036" points="329.2705,766.8364,321.3049,761.0442,324.3809,765.7917,319.6334,768.8677,329.2705,766.8364" style="stroke:#A80036;stroke-width:1.0;"/><!--MD5=[97e6711cbb8f44f0677b51918f08b73f]
link Employee to 31--><path d="M178.6512,752.7513 C193.9973,771.9301 214.3863,793.6806 237,808 C253.2024,818.2596 272.0546,826.135 290.5364,832.1357 " fill="none" id="Employee-to-31" style="stroke:#A80036;stroke-width:1.0;"/><polygon fill="#A80036" points="295.7369,833.7789,288.3602,827.2532,290.9692,832.2725,285.95,834.8815,295.7369,833.7789" style="stroke:#A80036;stroke-width:1.0;"/><!--MD5=[b544a4647a91182bf4fe20ce0bb65a8c]
link Employee to 50--><path d="M159.6172,752.6799 C171.2707,793.2978 194.8021,854.751 237,891 C249.8943,902.0765 265.6207,910.3015 281.7885,916.4084 " fill="none" id="Employee-to-50" style="stroke:#A80036;stroke-width:1.0;"/><polygon fill="#A80036" points="286.8176,918.2365,279.7256,911.4025,282.1184,916.5283,276.9926,918.9212,286.8176,918.2365" style="stroke:#A80036;stroke-width:1.0;"/><!--MD5=[b6a7adc79f0e350bdbfa398d2702ac03]
link User to 6--><path d="M166.2174,1198.6918 C196.9719,1192.4181 265.1836,1178.5036 315.4121,1168.2574 " fill="none" id="User-to-6" style="stroke:#A80036;stroke-width:1.0;"/><polygon fill="#A80036" points="320.5213,1167.2152,310.9034,1165.0949,315.6222,1168.2146,312.5025,1172.9334,320.5213,1167.2152" style="stroke:#A80036;stroke-width:1.0;"/><!--MD5=[ee4a564aec4e24619198a7021b9a17c1]
reverse link Person to User--><path d="M45.1898,772.2343 C69.8877,873.506 119.0885,1075.2501 140.1076,1161.437 " fill="none" id="Person-backto-User" style="stroke:#A80036;stroke-width:1.0;"/><polygon fill="none" points="38.3189,773.6047,40.3809,752.5156,51.9203,770.2876,38.3189,773.6047" style="stroke:#A80036;stroke-width:1.0;"/><!--MD5=[1ca9c1e22cc1eb729b1002e4b7ac82ab]
reverse link Person to Employee--><path d="M75.5528,712 C88.8743,712 103.235,712 115.7561,712 " fill="none" id="Person-backto-Employee" style="stroke:#A80036;stroke-width:1.0;"/><polygon fill="none" points="75.2605,718.9999,55.2605,712,75.2604,704.9999,75.2605,718.9999" style="stroke:#A80036;stroke-width:1.0;"/><!--MD5=[e4eb34366b549f316bd55ff4416cda69]
reverse link Person to Admin--><path d="M45.8717,651.9281 C70.5937,555.3157 118.5451,367.9242 139.6284,285.5318 " fill="none" id="Person-backto-Admin" style="stroke:#A80036;stroke-width:1.0;"/><polygon fill="none" points="52.6354,653.7334,40.8958,671.3738,39.0724,650.2627,52.6354,653.7334" style="stroke:#A80036;stroke-width:1.0;"/><!--MD5=[c141dc72ef994082568a338af2dc3ce8]
link Admin to 9--><path d="M161.6934,204.2638 C174.3268,167.6031 198.0605,115.0186 237,85 C255.6858,70.5951 279.6512,62.2032 302.3765,57.3437 " fill="none" id="Admin-to-9" style="stroke:#A80036;stroke-width:1.0;"/><polygon fill="#A80036" points="307.5086,56.3007,297.8922,54.1734,302.6088,57.2966,299.4856,62.0131,307.5086,56.3007" style="stroke:#A80036;stroke-width:1.0;"/><!--MD5=[e25dc1850e6585001b3f5ce7b4fcad76]
link Admin to 11--><path d="M171.6929,212.1662 C187.3777,190.996 210.4253,164.5992 237,149 C260.5442,135.1797 289.603,127.3282 315.0138,122.8676 " fill="none" id="Admin-to-11" style="stroke:#A80036;stroke-width:1.0;"/><polygon fill="#A80036" points="320.0446,122.02,310.505,119.5711,315.1141,122.8508,311.8344,127.4599,320.0446,122.02" style="stroke:#A80036;stroke-width:1.0;"/><!--MD5=[370dd4850672e79fd8433be0a2ff2918]
link Admin to 61--><path d="M171.655,235.3786 C183.9305,230.134 199.6585,223.7611 214,219 C258.7614,204.1401 312.333,192.7434 345.1326,186.459 " fill="none" id="Admin-to-61" style="stroke:#A80036;stroke-width:1.0;"/><polygon fill="#A80036" points="350.2139,185.4945,340.6258,183.243,345.3016,186.4269,342.1177,191.1027,350.2139,185.4945" style="stroke:#A80036;stroke-width:1.0;"/><!--MD5=[fe78355ba8309fb9ee9f063ac75a9c68]
link Admin to 71--><path d="M171.6219,245 C209.4862,245 288.3048,245 336.0864,245 " fill="none" id="Admin-to-71" style="stroke:#A80036;stroke-width:1.0;"/><polygon fill="#A80036" points="341.1824,245,332.1824,241,336.1824,245,332.1824,249,341.1824,245" style="stroke:#A80036;stroke-width:1.0;"/><!--MD5=[950b09e25e2093e0690df0d15e5a5247]
link Admin to 20--><path d="M171.5554,253.7874 C189.0078,260.6926 214.3288,270.2405 237,277 C266.2773,285.7291 299.6264,293.4988 326.2631,299.1958 " fill="none" id="Admin-to-20" style="stroke:#A80036;stroke-width:1.0;"/><polygon fill="#A80036" points="331.1561,300.2352,323.1838,294.4523,326.2652,299.1962,321.5214,302.2777,331.1561,300.2352" style="stroke:#A80036;stroke-width:1.0;"/><!--MD5=[0305539bd8fea82add14a9b5ac141feb]
link User to 2--><path d="M164.5822,1161.4899 C178.387,1128.7174 202.2144,1083.7621 237,1057 C251.9588,1045.4915 270.1227,1037.2923 288.3054,1031.4513 " fill="none" id="User-to-2" style="stroke:#A80036;stroke-width:1.0;"/><polygon fill="#A80036" points="293.4317,1029.8656,283.6516,1028.7039,288.655,1031.3432,286.0157,1036.3466,293.4317,1029.8656" style="stroke:#A80036;stroke-width:1.0;"/><!--MD5=[3d3a0d5c2e9eb9e0f038956203ac9dd0]
link User to 60--><path d="M166.2174,1203.5103 C203.438,1206.9765 295.5222,1215.552 344.1934,1220.0845 " fill="none" id="User-to-60" style="stroke:#A80036;stroke-width:1.0;"/><polygon fill="#A80036" points="349.3361,1220.5634,340.7459,1215.746,344.3576,1220.0997,340.0039,1223.7115,349.3361,1220.5634" style="stroke:#A80036;stroke-width:1.0;"/><!--MD5=[fb126b6ed985c18f479cbd064c261574]
link User to 13--><path d="M166.1571,1214.038 C183.0197,1226.0591 210.6322,1244.2504 237,1255 C269.1627,1268.112 307.8221,1276.4787 336.1139,1281.3547 " fill="none" id="User-to-13" style="stroke:#A80036;stroke-width:1.0;"/><polygon fill="#A80036" points="341.2721,1282.2249,333.063,1276.7833,336.3418,1281.393,331.732,1284.6718,341.2721,1282.2249" style="stroke:#A80036;stroke-width:1.0;"/><!--MD5=[40628e25c87b0d17a40f5eb3c5cbd5c3]
link User to 70--><path d="M166.052,1234.8765 C180.8168,1261.6197 205.2244,1298.2163 237,1319 C266.8711,1338.538 307.1978,1346.2133 336.6312,1349.1938 " fill="none" id="User-to-70" style="stroke:#A80036;stroke-width:1.0;"/><polygon fill="#A80036" points="341.626,1349.6653,333.0419,1344.837,336.6481,1349.1953,332.2898,1352.8016,341.626,1349.6653" style="stroke:#A80036;stroke-width:1.0;"/><!--MD5=[8c6d0d42a95dfac7dacdce5002df7767]
link User to 15--><path d="M166.1326,1181.8487 C182.1481,1163.2231 208.3875,1136.2021 237,1121 C262.1306,1107.6478 292.7227,1099.8317 318.7571,1095.2734 " fill="none" id="User-to-15" style="stroke:#A80036;stroke-width:1.0;"/><polygon fill="#A80036" points="323.9003,1094.4045,314.3597,1091.9598,318.9702,1095.2375,315.6925,1099.848,323.9003,1094.4045" style="stroke:#A80036;stroke-width:1.0;"/><!--MD5=[7ece7609d8901bd70146489c02b7edd3]
link User to 25--><path d="M159.5335,1242.5757 C171.1691,1283.5008 194.7312,1345.7999 237,1383 C248.449,1393.0761 262.1715,1400.957 276.4652,1407.1179 " fill="none" id="User-to-25" style="stroke:#A80036;stroke-width:1.0;"/><polygon fill="#A80036" points="281.3321,1409.142,274.5583,1401.9925,276.7155,1407.2219,271.4861,1409.3791,281.3321,1409.142" style="stroke:#A80036;stroke-width:1.0;"/><!--MD5=[91891a01146e9aab09d837311bc49910]
link Employee to 12--><path d="M184.235,697.1303 C193.7768,693.2501 204.2113,689.2496 214,686 C258.7614,671.1401 312.333,659.7434 345.1326,653.459 " fill="none" id="Employee-to-12" style="stroke:#A80036;stroke-width:1.0;"/><polygon fill="#A80036" points="350.2139,652.4945,340.6258,650.243,345.3016,653.4269,342.1177,658.1027,350.2139,652.4945" style="stroke:#A80036;stroke-width:1.0;"/><!--MD5=[ee45a269247645bdcd24e99c165491db]
link Employee to 14--><path d="M184.2486,712 C225.0952,712 293.2299,712 336.1887,712 " fill="none" id="Employee-to-14" style="stroke:#A80036;stroke-width:1.0;"/><polygon fill="#A80036" points="341.2993,712,332.2993,708,336.2993,712,332.2993,716,341.2993,712" style="stroke:#A80036;stroke-width:1.0;"/><!--MD5=[748cd4e769286e0c83cd36d7676d4b87]
link Employee to 21--><path d="M161.221,671.3537 C173.6277,634.1242 197.3027,580.3357 237,550 C259.2436,533.002 288.9688,524.7849 315.1778,520.9044 " fill="none" id="Employee-to-21" style="stroke:#A80036;stroke-width:1.0;"/><polygon fill="#A80036" points="320.3694,520.1848,310.9054,517.4585,315.4168,520.8714,312.0039,525.3828,320.3694,520.1848" style="stroke:#A80036;stroke-width:1.0;"/><!--MD5=[65e24fed95cfb3619ef01b95984d7d73]
@startuml
left to right direction

"Admin" as Admin
"Employee" as Employee
"Person" as Person
rectangle wineshop {
"add employee" as (10)
"view request" as (4)
"buy wine" as (1)
"view notifications number" as (2)
(15) <.down. (7) : extend
(15) <.down. (1) : extend
"view user orders" as (6)
"request wine" as (7)
"search wine for name and year" as (8)
"view employees" as (9)
(15) <.down. (8) : extend
(9) <.down. (10) : extend
"view orders" as (11)
"login" as (12)
"login" as (60)
"login" as (61)
"singup" as (13)
"logout" as (14)
"logout" as (70)
"logout" as (71)
"view wines" as (15)
"view wines" as (20)
"view wines" as (21)
"view users" as (16)
"view orders" as (30)
(30) <.down. (ship order) : extend
"view unprocessed requests" as (31)
"process request" as (33)
"update wine quantity" as (34)
(31) <.down. (view all requests) : extend
(31) <.down. (33) : extend
(33) .left.> (34) : include
"update quantity of wine" as (40)
(21) <. (new wine) : extend
(21) <.down. (view only finished wines) : extend
(21) <.down. (40) : extend
(40) .left.> (process all requests of wine) : include
"view number of finished wines" as (50)
"view new user requests processed" as (25)
(25) <.down. (view all user requests) : extend
}

Admin - -> (16)


Employee - -> (4)
Employee - -> (30)
Employee - -> (31)
Employee - -> (50)


User - -> (6)
Person <|- - User
Person <|- - Employee
Person <|- - Admin


Admin - -> (9)
Admin - -> (11)

Admin - -> (61)
Admin - -> (71)
Admin - -> (20)

User - -> (2)
User - -> (60)
User - -> (13)
User - -> (70)
User - -> (15)
User - -> (25)

Employee - -> (12)
Employee - -> (14)
Employee - -> (21)
@enduml

PlantUML version 1.2020.22(Sun Dec 06 09:36:27 UTC 2020)
(GPL source distribution)
Java Runtime: OpenJDK Runtime Environment
JVM: OpenJDK 64-Bit Server VM
Default Encoding: UTF-8
Language: en
Country: US
--></g></svg>